:SAMPLES-PER-SECOND 30
:FULLY-SPECIFIED
:DEGREES
260
root  4.97177 37.8805 -64.9726 6.92389 34.1663 2.17864
RightUpLeg  -28.4841 -15.2512 11.3545
RightLeg  29.5452 10.8156 -4.06247
RightFoot  -11.1167 0.229249 -10.6809
RightToes  -5.82073e-011 -3.18055e-015 -2.98177e-016
Spine  22.8583 -0.0465263 1.1632
Spine1  5.15861 -1.02658 3.77577
HEad  -25.0066 -20.9916 13.5224
LeftShoulder1  -3.88251e-019 9.70628e-020 -3.87848e-018
LeftArm  -13.5114 43.7906 -72.8921
LeftForeArm  -7.76741 -49.0195 12.8392
LeftHand  -6.11596 -13.8968 36.4131
RightShoulder  7.65572 10.6381 35.9333
RightArm  21.5802 -36.7183 22.5734
RightForeArm  -11.8184 50.3872 -32.25
RightHand  -5.31563 8.9197 -40.7935
LeftUpLeg  -28.7692 0.545979 0.292246
LeftLeg  27.8686 -1.79265 7.7803
LeftFoot  -3.36751 0.354026 -4.25901
LeftToes  1.2018e-011 -3.94675e-011 -1.33631e-011
261
root  5.40986 37.8537 -65.0296 8.68378 33.5886 2.74882
RightUpLeg  -30.3138 -13.8419 10.3244
RightLeg  30.458 10.3388 -4.48772
RightFoot  -11.2302 0.203198 -9.78159
RightToes  -5.82073e-011 -3.18055e-015 -2.98177e-016
Spine  22.7303 -0.115449 0.41944
Spine1  7.79303 -1.12123 3.31194
HEad  -26.8993 -19.8388 13.9057
LeftShoulder1  -3.88251e-019 9.70628e-020 -3.87848e-018
LeftArm  -15.3948 49.3874 -73.6385
LeftForeArm  -11.103 -44.4101 10.5914
LeftHand  -3.67735 -10.3301 27.3924
RightShoulder  8.22108 10.8977 38.1404
RightArm  25.4955 -40.9036 15.6223
RightForeArm  -13.6722 44.7409 -26.0614
RightHand  -2.69113 4.46659 -30.6722
LeftUpLeg  -30.1703 3.87894 -1.90975
LeftLeg  28.8489 -3.73292 6.90433
LeftFoot  -3.02037 0.0848048 -0.995687
LeftToes  1.2018e-011 -3.94675e-011 -1.33631e-011
262
root  5.77532 37.864 -65.1028 10.7493 33.4253 3.61657
RightUpLeg  -32.1161 -12.0649 8.94204
RightLeg  30.9276 9.23379 -5.29418
RightFoot  -11.2821 0.179066 -8.59709
RightToes  -5.82073e-011 -3.18055e-015 -2.98177e-016
Spine  23.452 -0.372751 -0.0183829
Spine1  9.49369 -1.26206 2.51006
HEad  -28.9608 -19.2719 14.5748
LeftShoulder1  -3.88251e-019 9.70628e-020 -3.87848e-018
LeftArm  -14.1731 55.8899 -73.4972
LeftForeArm  -17.5615 -38.8085 8.22213
LeftHand  -1.5485 -5.56142 17.1367
RightShoulder  8.67279 11.0832 39.8855
RightArm  30.6984 -45.6636 8.1076
RightForeArm  -18.724 36.6473 -19.4142
RightHand  -0.996151 -0.487341 -23.3639
LeftUpLeg  -31.2289 5.99211 -4.14633
LeftLeg  28.5073 -4.2763 6.49613
LeftFoot  -4.37276 -0.034358 0.2723
LeftToes  1.2018e-011 -3.94675e-011 -1.33631e-011
263
root  6.09386 37.8093 -65.1594 13.1792 33.7231 4.11093
RightUpLeg  -34.592 -10.3483 8.0382
RightLeg  31.5718 7.86637 -6.34697
RightFoot  -11.6385 0.134389 -7.21576
RightToes  -5.82073e-011 -3.18055e-015 -2.98177e-016
Spine  24.5103 -0.697164 0.279512
Spine1  10.0588 -1.54165 2.20205
HEad  -30.8804 -19.2585 15.2436
LeftShoulder1  -3.88251e-019 9.70628e-020 -3.87848e-018
LeftArm  -10.9109 62.9175 -73.0937
LeftForeArm  -23.041 -32.9747 6.27181
LeftHand  -0.479981 -1.18709 9.55218
RightShoulder  8.97851 11.2163 41.0163
RightArm  36.706 -50.5177 -0.110619
RightForeArm  -20.711 27.247 -13.5034
RightHand  -0.295788 -3.7344 -19.1424
LeftUpLeg  -33.5401 5.38313 -5.1849
LeftLeg  28.5247 -4.3874 6.43294
LeftFoot  -5.01398 -0.00936848 -0.0555385
LeftToes  1.2018e-011 -3.94675e-011 -1.33631e-011
264
root  6.37824 37.6178 -65.1959 15.8044 34.1019 4.02936
RightUpLeg  -37.9729 -8.61533 7.73776
RightLeg  32.9008 6.53957 -7.59072
RightFoot  -12.2738 0.0850334 -5.85877
RightToes  -5.82073e-011 -3.18055e-015 -2.98177e-016
Spine  25.3987 -0.928549 1.02802
Spine1  10.0836 -1.95388 2.65337
HEad  -32.642 -19.1458 15.7764
LeftShoulder1  -3.88251e-019 9.70628e-020 -3.87848e-018
LeftArm  -9.45765 69.9814 -72.9709
LeftForeArm  -21.0219 -27.4477 3.84269
LeftHand  -0.258373 0.175726 6.44902
RightShoulder  9.18103 11.3124 41.7324
RightArm  38.6364 -54.5721 -9.81633
RightForeArm  -8.02892 19.1607 -7.77922
RightHand  -0.1302 -4.37682 -14.1655
LeftUpLeg  -37.2602 4.50445 -5.61285
LeftLeg  30.3107 -4.56193 6.71625
LeftFoot  -5.46214 0.00319536 -0.249676
LeftToes  1.2018e-011 -3.94675e-011 -1.33631e-011
265
root  6.62473 37.2765 -65.2408 18.6238 33.9031 3.88817
RightUpLeg  -42.2075 -6.58168 7.36887
RightLeg  35.1995 5.53053 -8.98107
RightFoot  -13.1818 0.0415219 -4.6305
RightToes  -5.82073e-011 -3.18055e-015 -2.98177e-016
Spine  26.2849 -0.956704 1.38697
Spine1  9.68343 -2.24869 3.1422
HEad  -34.2297 -18.6121 16.2414
LeftShoulder1  -3.88251e-019 9.70628e-020 -3.87848e-018
LeftArm  -16.0568 76.8697 -72.3803
LeftForeArm  -6.64267 -22.5781 -1.14963
LeftHand  -0.338889 -0.633893 7.11307
RightShoulder  9.34953 11.3964 42.3115
RightArm  34.9127 -57.1496 -22.1369
RightForeArm  19.4941 14.372 -2.77505
RightHand  -0.319574 -1.51734 -9.28959
LeftUpLeg  -41.5512 4.80751 -6.39571
LeftLeg  33.1779 -4.76551 7.23153
LeftFoot  -7.44579 0.0210724 -0.906286
LeftToes  1.2018e-011 -3.94675e-011 -1.33631e-011
266
root  6.85094 36.7597 -65.314 21.4206 32.9421 3.79527
RightUpLeg  -47.1333 -4.58482 6.83252
RightLeg  38.6393 5.30604 -10.2551
RightFoot  -14.5872 0.00345944 -3.4997
RightToes  -5.82073e-011 -3.18055e-015 -2.98177e-016
Spine  27.2825 -0.836228 1.26054
Spine1  8.97676 -2.26643 3.11566
HEad  -35.6677 -17.8767 16.5504
LeftShoulder1  -3.88251e-019 9.70628e-020 -3.87848e-018
LeftArm  -24.9041 83.6062 -72.8536
LeftForeArm  4.72686 -18.2811 -4.02987
LeftHand  -0.3297 -0.488988 7.03105
RightShoulder  9.3627 11.4081 42.3439
RightArm  43.3572 -58.8085 -36.0789
RightForeArm  30.7797 12.7335 -2.82493
RightHand  -0.418038 1.38361 -6.96245
LeftUpLeg  -46.2221 5.00285 -7.07997
LeftLeg  36.8943 -4.78171 8.13751
LeftFoot  -10.898 0.0250975 -3.09525
LeftToes  1.2018e-011 -3.94675e-011 -1.33631e-011
267
root  7.09935 36.0172 -65.402 23.5414 31.6362 3.1037
RightUpLeg  -52.3548 -3.0734 6.86856
RightLeg  43.22 6.07433 -11.1269
RightFoot  -16.5056 -0.0215587 -2.54783
RightToes  -5.82073e-011 -3.18055e-015 -2.98177e-016
Spine  28.0311 -0.720596 1.58261
Spine1  8.70279 -2.09704 2.65365
HEad  -37.0761 -16.9493 16.5258
LeftShoulder1  -3.88251e-019 9.70628e-020 -3.87848e-018
LeftArm  -107.152 89.487 -150.033
LeftForeArm  5.29665 -15.8265 -4.10279
LeftHand  -0.129158 0.537727 3.20322
RightShoulder  9.05637 11.2606 41.2728
RightArm  54.7127 -59.5582 -49.6892
RightForeArm  27.2726 13.5907 -3.03547
RightHand  -0.299746 1.2177 -5.12736
LeftUpLeg  -51.4659 4.3074 -6.66566
LeftLeg  42.2473 -4.6852 9.75905
LeftFoot  -14.4624 -0.10073 -5.41292
LeftToes  1.2018e-011 -3.94675e-011 -1.33631e-011
268
root  7.3895 35.0681 -65.4689 24.7821 30.2849 1.68508
RightUpLeg  -57.416 -2.06016 7.70007
RightLeg  48.6213 7.52288 -11.5057
RightFoot  -18.742 -0.0377724 -2.00522
RightToes  -5.82073e-011 -3.18055e-015 -2.98177e-016
Spine  28.4743 -0.714922 2.75577
Spine1  9.10695 -1.82523 1.7479
HEad  -38.3485 -15.5775 16.1735
LeftShoulder1  -3.88251e-019 9.70628e-020 -3.87848e-018
LeftArm  156.658 84.9882 116.987
LeftForeArm  0.460775 -14.8478 -3.37595
LeftHand  0.0430447 1.40025 -1.51146
RightShoulder  8.63332 11.0539 39.7654
RightArm  62.5865 -59.5984 -59.1925
RightForeArm  18.7185 14.3648 -3.26315
RightHand  -0.180122 -0.0526088 -3.79504
LeftUpLeg  -56.8405 3.54429 -5.4511
LeftLeg  48.8591 -4.64495 12.1825
LeftFoot  -17.4977 -0.271255 -5.92338
LeftToes  1.2018e-011 -3.94675e-011 -1.33631e-011
269
root  7.70702 34.023 -65.4736 25.7155 28.7502 0.349446
RightUpLeg  -62.0752 -1.43509 8.62612
RightLeg  54.3478 9.24307 -11.3594
RightFoot  -21.4213 -0.0593713 -1.79369
RightToes  -5.82073e-011 -3.18055e-015 -2.98177e-016
Spine  29.2256 -0.722691 3.86464
Spine1  9.15437 -1.37944 0.413993
HEad  -39.1972 -14.087 15.4427
LeftShoulder1  -3.88251e-019 9.70628e-020 -3.87848e-018
LeftArm  148.726 81.9994 110.75
LeftForeArm  -2.17005 -13.9665 -3.03932
LeftHand  0.111032 1.5196 -3.94243
RightShoulder  8.42326 10.9575 38.9815
RightArm  64.1341 -59.3163 -62.6343
RightForeArm  16.0417 14.0971 -3.41555
RightHand  -0.205291 -0.024549 -4.24569
LeftUpLeg  -61.6472 3.30931 -4.55831
LeftLeg  55.2725 -4.79885 15.0674
LeftFoot  -20.2733 -0.387537 -5.30101
LeftToes  1.2018e-011 -3.94675e-011 -1.33631e-011
270
root  8.05162 32.9666 -65.3918 26.7574 27.0064 -0.494255
RightUpLeg  -66.2943 -1.06392 9.19716
RightLeg  60.0797 10.9743 -10.6801
RightFoot  -24.6424 -0.0619739 -1.44072
RightToes  -5.82073e-011 -3.18055e-015 -2.98177e-016
Spine  30.5709 -0.482613 4.27346
Spine1  7.9986 -0.74942 -0.63628
HEad  -39.6698 -13.1932 14.0802
LeftShoulder1  -3.88251e-019 9.70628e-020 -3.87848e-018
LeftArm  141.821 81.33 103.718
LeftForeArm  -0.56068 -12.8831 -3.27095
LeftHand  0.146363 0.995392 -4.44633
RightShoulder  8.35532 10.9297 38.7169
RightArm  62.8887 -59.159 -61.1284
RightForeArm  17.2327 14.1229 -3.54607
RightHand  -0.339836 0.92772 -6.11565
LeftUpLeg  -65.7936 3.41606 -4.2582
LeftLeg  60.9523 -5.33194 17.9097
LeftFoot  -22.9926 -0.53898 -5.47647
LeftToes  1.2018e-011 -3.94675e-011 -1.33631e-011
271
root  8.44737 31.9283 -65.2119 27.7706 25.4706 -1.25772
RightUpLeg  -70.0369 -0.765594 9.60158
RightLeg  65.5465 12.4268 -9.80947
RightFoot  -27.7463 -0.0148419 -0.839767
RightToes  -5.82073e-011 -3.18055e-015 -2.98177e-016
Spine  31.9628 -0.00942142 4.6205
Spine1  6.15824 -0.132251 -0.88111
HEad  -40.0971 -12.7949 12.2532
LeftShoulder1  -3.88251e-019 9.70628e-020 -3.87848e-018
LeftArm  131.576 83.0616 92.1574
LeftForeArm  1.81656 -12.2336 -3.67789
LeftHand  0.180609 0.663664 -4.98486
RightShoulder  8.15069 10.8288 37.9517
RightArm  60.6117 -59.8037 -55.2337
RightForeArm  15.9441 15.2876 -4.07172
RightHand  -0.515266 1.93016 -8.08192
LeftUpLeg  -69.4494 3.59203 -4.04166
LeftLeg  66.1788 -6.36464 20.3537
LeftFoot  -25.5974 -0.804404 -6.6962
LeftToes  1.2018e-011 -3.94675e-011 -1.33631e-011
272
root  8.89832 30.9825 -64.9121 28.5981 24.5157 -1.99941
RightUpLeg  -73.0238 -0.541423 9.82635
RightLeg  70.3027 13.3657 -9.42869
RightFoot  -30.1317 0.0374244 -0.422518
RightToes  -5.82073e-011 -3.18055e-015 -2.98177e-016
Spine  33.0224 0.188137 5.36707
Spine1  4.33226 0.189317 -0.978158
HEad  -40.5418 -12.085 10.8072
LeftShoulder1  -3.88251e-019 9.70628e-020 -3.87848e-018
LeftArm  85.2222 86.4403 44.6151
LeftForeArm  2.72036 -11.438 -3.84968
LeftHand  0.218501 0.321171 -5.51917
RightShoulder  7.86106 10.6827 36.8588
RightArm  51.055 -60.8683 -41.6684
RightForeArm  14.3484 15.7731 -4.75971
RightHand  -0.736513 3.472 -9.58656
LeftUpLeg  -72.2552 3.65904 -3.85402
LeftLeg  70.7673 -7.69221 22.184
LeftFoot  -28.2678 -1.1381 -7.95814
LeftToes  1.2018e-011 -3.94675e-011 -1.33631e-011
